<?xml version="1.0" encoding="utf-8"?>
<!-- Generator: Adobe Illustrator 16.0.0, SVG Export Plug-In . SVG Version: 6.00 Build 0)  -->
<!DOCTYPE svg PUBLIC "-//W3C//DTD SVG 1.1//EN" "http://www.w3.org/Graphics/SVG/1.1/DTD/svg11.dtd">
<svg version="1.1" id="Layer_1" xmlns="http://www.w3.org/2000/svg" xmlns:xlink="http://www.w3.org/1999/xlink" x="0px" y="0px"
	 width="20px" height="20px" viewBox="0 0 20 20" enable-background="new 0 0 20 20" xml:space="preserve">
<g>
	<path fill="#49075E" d="M14.7,18.6c-1.5,0.8-3.1,1.1-5,1.1c-4.6,0-8.5-3.4-8.5-8.7c0-5.8,4-10.8,10.2-10.8c4.9,0,8.1,3.4,8.1,8.1
		c0,4.2-2.4,6.7-5,6.7c-1.1,0-2.2-0.8-2.1-2.5h-0.1c-1,1.7-2.3,2.5-3.9,2.5c-1.6,0-3-1.3-3-3.5c0-3.5,2.7-6.6,6.6-6.6
		c1.2,0,2.3,0.3,3,0.6l-1,5.1c-0.4,2.1-0.1,3.1,0.8,3.1c1.4,0,3-1.9,3-5.1c0-4.1-2.4-7-6.8-7c-4.6,0-8.4,3.6-8.4,9.3
		c0,4.7,3.1,7.6,7.2,7.6c1.6,0,3.1-0.3,4.2-1L14.7,18.6z M13.1,6.5c-0.3-0.1-0.8-0.2-1.4-0.2c-2.5,0-4.5,2.3-4.5,5
		c0,1.2,0.6,2.1,1.8,2.1c1.6,0,3.1-2.1,3.4-3.8L13.1,6.5z"/>
</g>
<g>
</g>
<g>
</g>
<g>
</g>
<g>
</g>
<g>
</g>
<g>
</g>
<g>
</g>
<g>
</g>
<g>
</g>
<g>
</g>
<g>
</g>
<g>
</g>
<g>
</g>
<g>
</g>
<g>
</g>
</svg>
