<?xml version="1.0" encoding="utf-8"?>
<!-- Generator: Adobe Illustrator 16.0.0, SVG Export Plug-In . SVG Version: 6.00 Build 0)  -->
<!DOCTYPE svg PUBLIC "-//W3C//DTD SVG 1.1//EN" "http://www.w3.org/Graphics/SVG/1.1/DTD/svg11.dtd">
<svg version="1.1" id="Capa_1" xmlns="http://www.w3.org/2000/svg" xmlns:xlink="http://www.w3.org/1999/xlink" x="0px" y="0px"
	 width="20px" height="20px" viewBox="236.5 256.5 20 20" enable-background="new 236.5 256.5 20 20" xml:space="preserve">
<path fill="#933EC5" d="M256.3,265.5l-2.9-2.7v-4.5H250v1.3l-3.4-3.2l-9.7,9c-0.1,0.1-0.1,0.3,0,0.5c0.1,0.1,0.3,0.1,0.5,0l1.1-1
	v11.3h5.4h5.4h5.4V265l1.1,1c0.1,0.1,0.1,0.1,0.2,0.1c0.1,0,0.2,0,0.2-0.1C256.4,265.9,256.4,265.7,256.3,265.5z M250.6,259h2v3.2
	l-2-1.9V259z M244.5,275.6v-7.2c0-0.2,0.1-0.3,0.3-0.3h3.4c0.2,0,0.3,0.1,0.3,0.3v7.2H244.5L244.5,275.6z M254,275.6h-4.8v-7.2
	c0-0.6-0.4-1-1-1h-3.4c-0.6,0-1,0.4-1,1v7.2h-4.8v-11.3l7.5-6.9l4.8,4.5l1.9,1.8l0,0l0.7,0.6V275.6z"/>
</svg>
