<?xml version="1.0" encoding="utf-8"?>
<!-- Generator: Adobe Illustrator 16.0.0, SVG Export Plug-In . SVG Version: 6.00 Build 0)  -->
<!DOCTYPE svg PUBLIC "-//W3C//DTD SVG 1.1//EN" "http://www.w3.org/Graphics/SVG/1.1/DTD/svg11.dtd">
<svg version="1.1" id="Layer_1" xmlns="http://www.w3.org/2000/svg" xmlns:xlink="http://www.w3.org/1999/xlink" x="0px" y="0px"
	 width="401px" height="201px" viewBox="0 0 401 201" enable-background="new 0 0 401 201" xml:space="preserve">
<rect x="0.5" y="0.5" fill="#F95759" stroke="#000000" stroke-miterlimit="10" width="400" height="200"/>
<g>
	<path d="M50.1,75.2h1.7l2.6,12.9l-2.2,0.8c-1.4-3.6-3.3-6.5-5.6-8.6c-1.9-1.7-4.1-2.6-6.4-2.6c-1.4,0-2.7,0.3-3.8,0.9
		s-2,1.4-2.5,2.4c-0.6,1-0.8,2-0.8,3.1c0,0.9,0.2,1.9,0.7,2.7s1.1,1.7,2,2.3s2.3,1.4,4.3,2.1l6.3,2.3c0.8,0.3,1.9,0.8,3.4,1.6
		c1.5,0.8,2.6,1.6,3.4,2.5s1.5,2,1.9,3.3c0.5,1.3,0.7,2.7,0.7,4.2c0,3.3-1.2,6.2-3.5,8.7c-2.3,2.5-5.4,3.7-9.1,3.7
		c-1.9,0-3.6-0.3-5.1-1s-3.1-1.9-4.9-3.7l-1.1,4h-1.7L28,102l2.2-0.6c0.8,2.8,1.9,5.2,3.3,7.1c1.4,1.9,2.9,3.4,4.5,4.4
		c1.6,1,3.3,1.5,5,1.5c2.3,0,4.3-0.9,6.1-2.6c1.4-1.5,2.2-3.2,2.2-5.2c0-1.8-0.5-3.3-1.6-4.5c-1.1-1.2-3-2.2-5.7-3.2l-6-2.2
		c-3.4-1.2-5.7-2.8-7.1-4.7c-1.4-1.9-2.1-4.1-2.1-6.6c0-1.9,0.4-3.7,1.3-5.3c0.9-1.6,2.3-3,4.1-4.1c1.9-1.1,3.9-1.7,6.1-1.7
		c1.9,0,3.6,0.4,5.3,1.2c1.2,0.6,2.3,1.4,3.3,2.4L50.1,75.2z"/>
	<path d="M58.2,88.1l9.1-0.5V107c0,1.7,0.2,3.1,0.6,4.1c0.4,1,1,1.8,1.7,2.3c0.8,0.6,1.7,0.8,2.7,0.8c1.3,0,2.7-0.4,4.4-1.3
		c1.6-0.9,3.3-2.1,4.9-3.8v-14c0-1.5-0.1-2.5-0.3-2.9c-0.2-0.5-0.5-0.8-0.9-1.1c-0.4-0.3-1.2-0.4-2.1-0.4h-1.8v-2.5l9.1-0.5v22.4
		c0,1.4,0.1,2.4,0.3,3c0.2,0.6,0.5,0.9,0.9,1.2s1.1,0.3,2.3,0.3h0.7v2.5l-8,0.5v-5.6c-2.2,2.2-4.1,3.7-5.8,4.5
		c-1.6,0.8-3.3,1.2-5,1.2c-1.3,0-2.3-0.2-3.3-0.6c-0.9-0.4-1.7-1.1-2.4-1.9s-1.2-1.9-1.6-3c-0.4-1.2-0.6-2.4-0.6-3.8V94.8
		c0-1.2-0.1-2.1-0.3-2.6c-0.2-0.5-0.5-0.9-0.9-1.2c-0.4-0.3-1-0.4-1.7-0.4h-2.2V88.1z"/>
	<path d="M108,78.1v-2.6c1.1-0.1,2.1-0.4,3-0.7c0.9-0.4,2-1,3.4-1.8h1.8v36.5c0,1.7,0,2.7,0.1,3.1c0.2,0.8,0.4,1.3,0.8,1.6
		c0.4,0.3,1.1,0.5,2.2,0.5h1v2.5l-8.4,0.5v-4.8c-1.6,1.8-3.1,3.1-4.5,3.9s-2.8,1.1-4.2,1.1c-2.9,0-5.3-1.5-7.2-4.4
		s-2.9-6.4-2.9-10.5c0-2.9,0.5-5.6,1.5-8s2.4-4.3,4-5.6c1.7-1.3,3.5-1.9,5.5-1.9c1.5,0,2.9,0.3,4.2,1c1.3,0.7,2.5,1.7,3.6,3V78.1
		H108z M112,109.8V98.5c0-1.6-0.2-3-0.7-4s-1.3-1.9-2.4-2.7c-1.1-0.8-2.3-1.1-3.4-1.1c-1.4,0-2.7,0.5-3.9,1.4
		c-1.2,1-2.1,2.3-2.8,4.1c-0.7,1.8-1,4-1,6.5c0,2.4,0.3,4.5,0.9,6.2c0.6,1.8,1.4,3.1,2.5,4c1,0.9,2.1,1.4,3.2,1.4
		c1.1,0,2.3-0.4,3.7-1.2C109.5,112.4,110.8,111.3,112,109.8z"/>
	<path d="M135.7,87.4c2.4,0,4.4,0.6,6.1,1.8c1.7,1.2,3.1,3,4.1,5.4c1,2.3,1.5,5,1.5,8c0,3-0.5,5.7-1.5,8s-2.4,4.1-4.2,5.4
		c-1.8,1.2-3.9,1.8-6.3,1.8c-3.9,0-6.8-1.5-8.7-4.5c-1.9-3-2.9-6.6-2.9-10.7c0-3,0.5-5.6,1.5-8s2.4-4.1,4.2-5.4
		C131.3,88,133.4,87.4,135.7,87.4z M135.5,90.3c-1.8,0-3.4,0.9-4.6,2.7c-1.6,2.2-2.4,5.5-2.4,9.8c0,4.1,0.7,7.3,2,9.4
		c1.2,1.9,2.9,2.9,5,2.9c1.4,0,2.6-0.5,3.6-1.4s1.9-2.3,2.6-4.3c0.7-2,1-4.3,1-7c0-2.6-0.4-4.9-1.1-7c-0.5-1.6-1.4-2.9-2.5-3.8
		C138.2,90.7,136.9,90.3,135.5,90.3z"/>
	<path d="M150.8,78v-2.5c2-0.2,4.2-1,6.4-2.5h1.8v30l8.9-8.8c1.4-1.4,2.1-2.3,2.1-2.8c0-0.3-0.2-0.5-0.5-0.7
		c-0.2-0.1-0.7-0.2-1.4-0.2h-1.3v-2.5H179v2.5c-1.4,0-2.5,0.2-3.3,0.5c-0.8,0.4-1.8,1-2.8,2.1l-7,6.7l8.2,11.2
		c0.8,1.1,1.4,1.8,1.9,2.3c0.5,0.4,1,0.7,1.5,0.9c0.5,0.2,1.3,0.3,2.3,0.3v2.5h-12.8v-2.5h1c1,0,1.6-0.1,1.9-0.3
		c0.3-0.2,0.4-0.4,0.4-0.8s-0.2-0.8-0.7-1.4c-0.1-0.1-0.2-0.2-0.3-0.4l-6.4-9.2l-3.9,3.7v3.9c0,1.5,0.1,2.4,0.3,2.9
		c0.2,0.5,0.5,0.8,0.8,1.1c0.4,0.2,1.1,0.4,2.2,0.4h0.9v2.5h-12.4v-2.5c1.4,0,2.3-0.1,2.6-0.2c0.6-0.2,1-0.6,1.2-1.2
		c0.2-0.6,0.4-1.6,0.4-3.2V78H150.8z"/>
	<path d="M180.4,88.1l9.1-0.5V107c0,1.7,0.2,3.1,0.6,4.1c0.4,1,1,1.8,1.7,2.3c0.8,0.6,1.7,0.8,2.7,0.8c1.3,0,2.7-0.4,4.4-1.3
		c1.6-0.9,3.3-2.1,4.9-3.8v-14c0-1.5-0.1-2.5-0.3-2.9c-0.2-0.5-0.5-0.8-0.9-1.1c-0.5-0.3-1.2-0.4-2.1-0.4h-1.8v-2.5l9.1-0.5v22.4
		c0,1.4,0.1,2.4,0.3,3c0.2,0.6,0.5,0.9,0.9,1.2c0.4,0.2,1.1,0.3,2.3,0.3h0.7v2.5l-8,0.5v-5.6c-2.2,2.2-4.1,3.7-5.8,4.5
		c-1.6,0.8-3.3,1.2-5,1.2c-1.3,0-2.3-0.2-3.3-0.6c-0.9-0.4-1.7-1.1-2.4-1.9s-1.2-1.9-1.6-3c-0.4-1.2-0.6-2.4-0.6-3.8V94.8
		c0-1.2-0.1-2.1-0.3-2.6c-0.2-0.5-0.5-0.9-0.9-1.2c-0.4-0.3-1-0.4-1.7-0.4h-2.2V88.1z"/>
	<path d="M254.2,75.2h1.7l2.6,12.9l-2.2,0.8c-1.4-3.6-3.3-6.5-5.6-8.6c-1.9-1.7-4.1-2.6-6.4-2.6c-1.4,0-2.7,0.3-3.8,0.9
		c-1.1,0.6-2,1.4-2.5,2.4c-0.6,1-0.8,2-0.8,3.1c0,0.9,0.2,1.9,0.7,2.7s1.1,1.7,2,2.3s2.3,1.4,4.3,2.1l6.3,2.3
		c0.8,0.3,1.9,0.8,3.4,1.6c1.5,0.8,2.6,1.6,3.4,2.5s1.5,2,1.9,3.3c0.5,1.3,0.7,2.7,0.7,4.2c0,3.3-1.2,6.2-3.5,8.7s-5.4,3.7-9.1,3.7
		c-1.9,0-3.6-0.3-5.1-1s-3.1-1.9-4.9-3.7l-1.1,4h-1.7l-2.2-15.1l2.2-0.6c0.8,2.8,1.9,5.2,3.3,7.1c1.4,1.9,2.9,3.4,4.5,4.4
		s3.3,1.5,5,1.5c2.3,0,4.3-0.9,6.1-2.6c1.4-1.5,2.2-3.2,2.2-5.2c0-1.8-0.5-3.3-1.6-4.5c-1.1-1.2-3-2.2-5.7-3.2l-6-2.2
		c-3.4-1.2-5.7-2.8-7.1-4.7c-1.4-1.9-2.1-4.1-2.1-6.6c0-1.9,0.4-3.7,1.3-5.3c0.9-1.6,2.3-3,4.1-4.1c1.9-1.1,3.9-1.7,6.1-1.7
		c1.9,0,3.6,0.4,5.3,1.2c1.2,0.6,2.3,1.4,3.3,2.4L254.2,75.2z"/>
	<path d="M275.7,87.4c2.4,0,4.4,0.6,6.1,1.8c1.7,1.2,3.1,3,4.1,5.4c1,2.3,1.5,5,1.5,8c0,3-0.5,5.7-1.5,8c-1,2.3-2.4,4.1-4.2,5.4
		c-1.8,1.2-3.9,1.8-6.3,1.8c-3.9,0-6.8-1.5-8.7-4.5c-1.9-3-2.9-6.6-2.9-10.7c0-3,0.5-5.6,1.5-8s2.4-4.1,4.2-5.4
		C271.3,88,273.4,87.4,275.7,87.4z M275.5,90.3c-1.8,0-3.4,0.9-4.6,2.7c-1.6,2.2-2.4,5.5-2.4,9.8c0,4.1,0.7,7.3,2,9.4
		c1.2,1.9,2.9,2.9,5,2.9c1.4,0,2.6-0.5,3.6-1.4c1.1-0.9,1.9-2.3,2.6-4.3c0.7-2,1-4.3,1-7c0-2.6-0.4-4.9-1.1-7
		c-0.5-1.6-1.4-2.9-2.5-3.8C278.1,90.7,276.9,90.3,275.5,90.3z"/>
	<path d="M290.9,78v-2.5c2.2-0.2,4.3-1,6.4-2.5h1.8v37c0,1.6,0.1,2.5,0.2,2.9c0.2,0.6,0.5,1,0.9,1.2c0.4,0.3,1.2,0.4,2.3,0.4h0.8
		v2.5h-12.4v-2.5h1.3c0.8,0,1.4-0.1,1.8-0.4c0.4-0.3,0.7-0.7,0.8-1.2c0.2-0.5,0.3-1.6,0.3-3.1V78H290.9z"/>
	<path d="M304.1,88.1h11v2.5h-0.7c-0.9,0-1.5,0-1.7,0.1c-0.3,0.1-0.6,0.3-0.7,0.6c-0.2,0.3-0.2,0.6-0.2,0.9c0,0.5,0.2,1.3,0.5,2.4
		l5.5,17.1l5.3-17.1c0.3-1.1,0.5-1.9,0.5-2.4c0-0.5-0.2-0.9-0.5-1.2c-0.3-0.3-0.9-0.4-1.7-0.4h-1.2v-2.5h9.5v2.5
		c-0.7,0-1.2,0.2-1.6,0.4c-0.4,0.2-0.8,0.6-1,0.9c-0.2,0.4-0.6,1.3-1.1,2.7l-7.7,22.4h-2.9l-7.7-22.9c-0.3-0.9-0.7-1.7-1.1-2.3
		c-0.3-0.4-0.6-0.7-1-0.9c-0.4-0.2-0.9-0.3-1.5-0.3V88.1z"/>
	<path d="M352.1,109.3l1.5,1.6c-1.2,1.7-2.3,3.1-3.4,4.1c-1.1,1-2.1,1.7-3.1,2.1c-1,0.4-2.1,0.6-3.4,0.6c-2.4,0-4.4-0.6-6-1.8
		c-1.9-1.4-3.3-3.2-4.4-5.4c-1-2.2-1.5-4.9-1.5-7.9c0-3.2,0.5-5.9,1.5-8.1s2.3-4,4.1-5.3c1.8-1.3,3.8-1.9,6.1-1.9
		c1.7,0,3.2,0.3,4.5,1c1.3,0.7,2.3,1.7,3.2,3c0.9,1.3,1.5,2.9,1.9,4.6c0.2,1,0.4,2.3,0.4,4h-17c0,1-0.1,1.7-0.1,2.2
		c0,2.5,0.4,4.8,1.1,6.8c0.7,2,1.6,3.4,2.8,4.4s2.5,1.4,4,1.4c1.3,0,2.5-0.4,3.6-1.1C349.1,112.9,350.5,111.5,352.1,109.3z
		 M349.1,97.2c-0.2-1.8-0.6-3.2-1-4.1c-0.4-0.9-1.1-1.6-1.9-2.1c-0.8-0.5-1.7-0.8-2.7-0.8s-2,0.3-2.8,0.8c-0.9,0.5-1.6,1.2-2.2,2.2
		c-0.6,0.9-1.1,2.3-1.5,4H349.1z"/>
	<path d="M357.2,92.4v-2.5c1.2-0.1,2.2-0.4,3.1-0.7c0.9-0.4,2-1,3.1-1.8h1.8v5.7c1.1-1.7,2.5-3.1,4-4.1s2.9-1.5,4.1-1.5
		c1.2,0,2.1,0.4,2.8,1.1c0.7,0.7,1,1.6,1,2.6c0,0.7-0.2,1.4-0.7,1.9c-0.5,0.6-1,0.8-1.6,0.8c-0.3,0-0.5,0-0.7-0.2
		c-0.2-0.1-0.5-0.3-0.9-0.7c-0.9-0.7-1.6-1.1-2.2-1.1c-0.8,0-1.7,0.4-2.6,1.3c-1.2,1.1-2.2,2.1-2.9,3.2v13.9c0,1.2,0.1,2,0.2,2.5
		c0.1,0.4,0.3,0.8,0.5,1.1c0.2,0.3,0.5,0.5,0.9,0.7c0.4,0.1,1,0.2,1.9,0.2h0.8v2.5h-12.4v-2.5h1c1,0,1.6-0.1,1.9-0.3
		c0.4-0.3,0.7-0.7,0.9-1.2c0.2-0.5,0.3-1.5,0.3-2.9V92.4H357.2z"/>
</g>
</svg>
